{
  "source": "C:\\Users\\Peter\\Desktop\\stuff\\MIUN\\quantitative_research\\video_compression\\videos\\HEVC_CLASS_B\\ParkScene_1920x1080_24.y4m",
  "output": "C:\\Users\\Peter\\Desktop\\stuff\\MIUN\\quantitative_research\\video_compression\\compressed_videos\\HEVC_CLASS_B\\hevc\\1.5\\ParkScene_1920x1080_24_hevc.mp4",
  "codec": "hevc",
  "ok": "Input #0, yuv4mpegpipe, from 'C:\\Users\\Peter\\Desktop\\stuff\\MIUN\\quantitative_research\\video_compression\\videos\\HEVC_CLASS_B\\ParkScene_1920x1080_24.y4m':\n  Duration: 00:00:10.00, start: 0.000000, bitrate: 597198 kb/s\n  Stream #0:0: Video: rawvideo (I420 / 0x30323449), yuv420p(progressive), 1920x1080, 24 fps, 24 tbr, 24 tbn\n[out#0/mp4 @ 0000013a1d0db680] Codec AVOption b:a (set bitrate (in bits/s)) has not been used for any stream. The most likely reason is either wrong type (e.g. a video option with no video streams) or that it is a private option of some decoder which was not actually used for any stream.\nStream mapping:\n  Stream #0:0 -> #0:0 (rawvideo (native) -> hevc (libx265))\nPress [q] to stop, [?] for help\n[libx265 @ 0000013a1d0dcac0] Unknown option: \"aq-mode.\nx265 [info]: HEVC encoder version 4.1+190-8f11c33ac\nx265 [info]: build info [Windows][GCC 15.1.0][64 bit] 10bit\nx265 [info]: using cpu capabilities: MMX2 SSE2Fast LZCNT SSSE3 SSE4.2 AVX FMA3 BMI2 AVX2\nx265 [info]: Main 10 profile, Level-4 (Main tier)\nx265 [info]: Thread pool created using 12 threads\nx265 [info]: Slices                              : 1\nx265 [info]: frame threads / pool features       : 3 / wpp(17 rows)\nx265 [info]: Coding QT: max CU size, min CU size : 64 / 8\nx265 [info]: Residual QT: max TU size, max depth : 32 / 1 inter / 1 intra\nx265 [info]: ME / range / subpel / merge         : star / 57 / 3 / 3\nx265 [info]: Keyframe min / max / scenecut / bias  : 24 / 250 / 40 / 5.00 \nx265 [info]: Lookahead / bframes / badapt        : 25 / 4 / 2\nx265 [info]: b-pyramid / weightp / weightb       : 1 / 1 / 0\nx265 [info]: References / ref-limit  cu / depth  : 4 / on / on\nx265 [info]: AQ: mode / str / qg-size / cu-tree  : 2 / 1.0 / 32 / 1\nx265 [info]: Rate Control / qCompress            : ABR-1500 kbps / 0.60\nx265 [info]: VBV/HRD buffer / max-rate / init    : 1500 / 1500 / 0.750\nx265 [info]: tools: rect limit-modes rd=4 psy-rd=2.00 rdoq=2 psy-rdoq=1.00\nx265 [info]: tools: rskip mode=1 signhide tmvp strong-intra-smoothing lslices=4\nx265 [info]: tools: deblock sao dhdr10-info\nOutput #0, mp4, to 'C:\\Users\\Peter\\Desktop\\stuff\\MIUN\\quantitative_research\\video_compression\\compressed_videos\\HEVC_CLASS_B\\hevc\\1.5\\ParkScene_1920x1080_24_hevc.mp4':\n  Metadata:\n    encoder         : Lavf62.3.100\n  Stream #0:0: Video: hevc (hev1 / 0x31766568), yuv420p10le(tv, progressive), 1920x1080, q=2-31, 1500 kb/s, 24 fps, 12288 tbn\n    Metadata:\n      encoder         : Lavc62.11.100 libx265\n    Side data:\n      cpb: bitrate max/min/avg: 1500000/0/1500000 buffer size: 1500000 vbv_delay: N/A\nframe=    0 fps=0.0 q=0.0 size=       0KiB time=N/A bitrate=N/A speed=N/A elapsed=0:00:00.51    \nframe=    0 fps=0.0 q=0.0 size=       0KiB time=N/A bitrate=N/A speed=N/A elapsed=0:00:01.03    \nframe=    0 fps=0.0 q=0.0 size=       0KiB time=N/A bitrate=N/A speed=N/A elapsed=0:00:01.54    \nframe=    0 fps=0.0 q=0.0 size=       0KiB time=N/A bitrate=N/A speed=N/A elapsed=0:00:02.06    \nframe=    0 fps=0.0 q=0.0 size=       0KiB time=N/A bitrate=N/A speed=N/A elapsed=0:00:02.58    \nframe=    0 fps=0.0 q=0.0 size=       0KiB time=N/A bitrate=N/A speed=N/A elapsed=0:00:03.08    \nframe=    0 fps=0.0 q=0.0 size=       0KiB time=N/A bitrate=N/A speed=N/A elapsed=0:00:03.60    \nframe=    1 fps=0.2 q=35.3 size=       0KiB time=-00:00:00.04 bitrate=N/A speed=N/A elapsed=0:00:04.12    \nframe=    2 fps=0.4 q=41.8 size=       0KiB time=00:00:00.00 bitrate=N/A speed=   0x elapsed=0:00:04.63    \nframe=    3 fps=0.6 q=46.3 size=       0KiB time=00:00:00.04 bitrate=   8.4kbits/s speed=0.00808x elapsed=0:00:05.15    \nframe=    4 fps=0.7 q=47.9 size=       0KiB time=00:00:00.08 bitrate=   4.2kbits/s speed=0.0147x elapsed=0:00:05.67    \nframe=    5 fps=0.8 q=44.8 size=       0KiB time=00:00:00.12 bitrate=   2.8kbits/s speed=0.0202x elapsed=0:00:06.19    \nframe=    6 fps=0.9 q=38.5 size=       0KiB time=00:00:00.16 bitrate=   2.1kbits/s speed=0.0248x elapsed=0:00:06.71    \nframe=    7 fps=1.0 q=40.1 size=       0KiB time=00:00:00.20 bitrate=   1.7kbits/s speed=0.0288x elapsed=0:00:07.23    \nframe=    8 fps=1.0 q=40.4 size=       0KiB time=00:00:00.25 bitrate=   1.4kbits/s speed=0.0323x elapsed=0:00:07.74    \nframe=    9 fps=1.1 q=40.1 size=       0KiB time=00:00:00.29 bitrate=   1.2kbits/s speed=0.0352x elapsed=0:00:08.28    \nframe=    9 fps=1.0 q=40.1 size=       0KiB time=00:00:00.29 bitrate=   1.2kbits/s speed=0.0331x elapsed=0:00:08.80    \nframe=   10 fps=1.1 q=37.1 size=       0KiB time=00:00:00.33 bitrate=   1.1kbits/s speed=0.0358x elapsed=0:00:09.32    \nframe=   10 fps=1.0 q=37.1 size=       0KiB time=00:00:00.33 bitrate=   1.1kbits/s speed=0.0338x elapsed=0:00:09.85    \nframe=   11 fps=1.1 q=38.7 size=       0KiB time=00:00:00.37 bitrate=   0.9kbits/s speed=0.0361x elapsed=0:00:10.38    \nframe=   11 fps=1.0 q=38.7 size=       0KiB time=00:00:00.37 bitrate=   0.9kbits/s speed=0.0344x elapsed=0:00:10.90    \nframe=   12 fps=1.0 q=39.4 size=       0KiB time=00:00:00.41 bitrate=   0.8kbits/s speed=0.0364x elapsed=0:00:11.43    \nframe=   12 fps=1.0 q=39.4 size=       0KiB time=00:00:00.41 bitrate=   0.8kbits/s speed=0.0349x elapsed=0:00:11.94    \nframe=   13 fps=1.0 q=40.1 size=       0KiB time=00:00:00.45 bitrate=   0.8kbits/s speed=0.0367x elapsed=0:00:12.49    \nframe=   13 fps=1.0 q=40.1 size=       0KiB time=00:00:00.45 bitrate=   0.8kbits/s speed=0.0352x elapsed=0:00:13.00    \nframe=   14 fps=1.0 q=36.2 size=       0KiB time=00:00:00.50 bitrate=   0.7kbits/s speed=0.037x elapsed=0:00:13.52    \nframe=   15 fps=1.1 q=39.9 size=       0KiB time=00:00:00.54 bitrate=   0.6kbits/s speed=0.0386x elapsed=0:00:14.05    \nframe=   16 fps=1.1 q=39.9 size=       0KiB time=00:00:00.58 bitrate=   0.6kbits/s speed=0.0401x elapsed=0:00:14.55    \nframe=   16 fps=1.1 q=39.9 size=       0KiB time=00:00:00.58 bitrate=   0.6kbits/s speed=0.0387x elapsed=0:00:15.07    \nframe=   16 fps=1.0 q=39.9 size=       0KiB time=00:00:00.58 bitrate=   0.6kbits/s speed=0.0374x elapsed=0:00:15.58    \nframe=   18 fps=1.1 q=40.9 size=       0KiB time=00:00:00.66 bitrate=   0.5kbits/s speed=0.0413x elapsed=0:00:16.13    \nframe=   19 fps=1.1 q=34.3 size=       0KiB time=00:00:00.70 bitrate=   0.5kbits/s speed=0.0425x elapsed=0:00:16.65    \nframe=   19 fps=1.1 q=34.3 size=       0KiB time=00:00:00.70 bitrate=   0.5kbits/s speed=0.0413x elapsed=0:00:17.17    \nframe=   20 fps=1.1 q=38.9 size=       0KiB time=00:00:00.75 bitrate=   0.5kbits/s speed=0.0424x elapsed=0:00:17.70    \nframe=   20 fps=1.1 q=38.9 size=       0KiB time=00:00:00.75 bitrate=   0.5kbits/s speed=0.0411x elapsed=0:00:18.23    \nframe=   20 fps=1.1 q=38.9 size=       0KiB time=00:00:00.75 bitrate=   0.5kbits/s speed=0.0399x elapsed=0:00:18.79    \nframe=   21 fps=1.1 q=40.4 size=       0KiB time=00:00:00.79 bitrate=   0.4kbits/s speed=0.0409x elapsed=0:00:19.33    \nframe=   21 fps=1.1 q=40.4 size=       0KiB time=00:00:00.79 bitrate=   0.4kbits/s speed=0.0399x elapsed=0:00:19.85    \nframe=   22 fps=1.1 q=41.7 size=       0KiB time=00:00:00.83 bitrate=   0.4kbits/s speed=0.0409x elapsed=0:00:20.39    \nframe=   22 fps=1.1 q=41.7 size=       0KiB time=00:00:00.83 bitrate=   0.4kbits/s speed=0.0398x elapsed=0:00:20.91    \nframe=   22 fps=1.0 q=41.7 size=       0KiB time=00:00:00.83 bitrate=   0.4kbits/s speed=0.0388x elapsed=0:00:21.46    \nframe=   23 fps=1.0 q=34.9 size=       0KiB time=00:00:00.87 bitrate=   0.4kbits/s speed=0.0398x elapsed=0:00:21.97    \nframe=   23 fps=1.0 q=34.9 size=       0KiB time=00:00:00.87 bitrate=   0.4kbits/s speed=0.0389x elapsed=0:00:22.49    \nframe=   24 fps=1.0 q=38.3 size=       0KiB time=00:00:00.91 bitrate=   0.4kbits/s speed=0.0398x elapsed=0:00:23.05    \nframe=   24 fps=1.0 q=38.3 size=       0KiB time=00:00:00.91 bitrate=   0.4kbits/s speed=0.0389x elapsed=0:00:23.58    \nframe=   24 fps=1.0 q=38.3 size=       0KiB time=00:00:00.91 bitrate=   0.4kbits/s speed=0.038x elapsed=0:00:24.11    \nframe=   25 fps=1.0 q=41.1 size=       0KiB time=00:00:00.95 bitrate=   0.4kbits/s speed=0.0389x elapsed=0:00:24.63    \nframe=   26 fps=1.0 q=40.4 size=       0KiB time=00:00:01.00 bitrate=   0.4kbits/s speed=0.0397x elapsed=0:00:25.15    \nframe=   26 fps=1.0 q=40.4 size=       0KiB time=00:00:01.00 bitrate=   0.4kbits/s speed=0.0389x elapsed=0:00:25.70    \nframe=   27 fps=1.0 q=40.5 size=       0KiB time=00:00:01.04 bitrate=   0.3kbits/s speed=0.0397x elapsed=0:00:26.23    \nframe=   28 fps=1.0 q=34.4 size=       0KiB time=00:00:01.08 bitrate=   0.3kbits/s speed=0.0405x elapsed=0:00:26.77    \nframe=   29 fps=1.1 q=38.5 size=       0KiB time=00:00:01.12 bitrate=   0.3kbits/s speed=0.0412x elapsed=0:00:27.30    \nframe=   29 fps=1.0 q=38.5 size=       0KiB time=00:00:01.12 bitrate=   0.3kbits/s speed=0.0404x elapsed=0:00:27.83    \nframe=   30 fps=1.1 q=41.1 size=       0KiB time=00:00:01.16 bitrate=   0.3kbits/s speed=0.0411x elapsed=0:00:28.35    \nframe=   30 fps=1.0 q=41.1 size=       0KiB time=00:00:01.16 bitrate=   0.3kbits/s speed=0.0404x elapsed=0:00:28.87    \nframe=   31 fps=1.1 q=40.3 size=       0KiB time=00:00:01.20 bitrate=   0.3kbits/s speed=0.0411x elapsed=0:00:29.39    \nframe=   32 fps=1.1 q=34.2 size=       0KiB time=00:00:01.25 bitrate=   0.3kbits/s speed=0.0418x elapsed=0:00:29.92    \nframe=   32 fps=1.1 q=34.2 size=       0KiB time=00:00:01.25 bitrate=   0.3kbits/s speed=0.041x elapsed=0:00:30.46    \nframe=   33 fps=1.1 q=38.5 size=       0KiB time=00:00:01.29 bitrate=   0.3kbits/s speed=0.0417x elapsed=0:00:30.98    \nframe=   33 fps=1.0 q=38.5 size=       0KiB time=00:00:01.29 bitrate=   0.3kbits/s speed=0.041x elapsed=0:00:31.49    \nframe=   33 fps=1.0 q=38.5 size=       0KiB time=00:00:01.29 bitrate=   0.3kbits/s speed=0.0403x elapsed=0:00:32.02    \nframe=   33 fps=1.0 q=38.5 size=       0KiB time=00:00:01.29 bitrate=   0.3kbits/s speed=0.0397x elapsed=0:00:32.53    \nframe=   34 fps=1.0 q=41.1 size=       0KiB time=00:00:01.33 bitrate=   0.3kbits/s speed=0.0403x elapsed=0:00:33.07    \nframe=   34 fps=1.0 q=41.1 size=       0KiB time=00:00:01.33 bitrate=   0.3kbits/s speed=0.0397x elapsed=0:00:33.59    \nframe=   34 fps=1.0 q=41.1 size=       0KiB time=00:00:01.33 bitrate=   0.3kbits/s speed=0.0391x elapsed=0:00:34.10    \nframe=   34 fps=1.0 q=41.1 size=       0KiB time=00:00:01.33 bitrate=   0.3kbits/s speed=0.0385x elapsed=0:00:34.61    \nframe=   35 fps=1.0 q=40.4 size=       0KiB time=00:00:01.37 bitrate=   0.3kbits/s speed=0.0391x elapsed=0:00:35.15    \nframe=   35 fps=1.0 q=40.4 size=       0KiB time=00:00:01.37 bitrate=   0.3kbits/s speed=0.0385x elapsed=0:00:35.73    \nframe=   36 fps=1.0 q=34.2 size=       0KiB time=00:00:01.41 bitrate=   0.2kbits/s speed=0.0391x elapsed=0:00:36.24    \nframe=   37 fps=1.0 q=38.3 size=     256KiB time=00:00:01.45 bitrate=1438.3kbits/s speed=0.0397x elapsed=0:00:36.77    \nframe=   37 fps=1.0 q=38.3 size=     256KiB time=00:00:01.45 bitrate=1438.3kbits/s speed=0.0391x elapsed=0:00:37.29    \nframe=   39 fps=1.0 q=41.0 size=     256KiB time=00:00:01.54 bitrate=1360.5kbits/s speed=0.0408x elapsed=0:00:37.80    \nframe=   39 fps=1.0 q=41.0 size=     256KiB time=00:00:01.54 bitrate=1360.5kbits/s speed=0.0402x elapsed=0:00:38.33    \nframe=   41 fps=1.1 q=38.5 size=     256KiB time=00:00:01.62 bitrate=1290.8kbits/s speed=0.0418x elapsed=0:00:38.83    \nframe=   41 fps=1.0 q=38.5 size=     256KiB time=00:00:01.62 bitrate=1290.8kbits/s speed=0.0413x elapsed=0:00:39.35    \nframe=   42 fps=1.1 q=40.6 size=     256KiB time=00:00:01.66 bitrate=1258.5kbits/s speed=0.0418x elapsed=0:00:39.87    \nframe=   43 fps=1.1 q=40.5 size=     256KiB time=00:00:01.70 bitrate=1227.8kbits/s speed=0.0423x elapsed=0:00:40.38    \nframe=   45 fps=1.1 q=38.6 size=     256KiB time=00:00:01.79 bitrate=1170.7kbits/s speed=0.0438x elapsed=0:00:40.89    \nframe=   45 fps=1.1 q=38.6 size=     256KiB time=00:00:01.79 bitrate=1170.7kbits/s speed=0.0433x elapsed=0:00:41.41    \nframe=   46 fps=1.1 q=40.6 size=     256KiB time=00:00:01.83 bitrate=1144.1kbits/s speed=0.0437x elapsed=0:00:41.93    \nframe=   47 fps=1.1 q=40.6 size=     256KiB time=00:00:01.87 bitrate=1118.7kbits/s speed=0.0442x elapsed=0:00:42.44    \nframe=   49 fps=1.1 q=39.4 size=     256KiB time=00:00:01.91 bitrate=1094.3kbits/s speed=0.0446x elapsed=0:00:42.96    \nframe=   49 fps=1.1 q=39.4 size=     256KiB time=00:00:01.95 bitrate=1071.1kbits/s speed=0.045x elapsed=0:00:43.48    \nframe=   49 fps=1.1 q=39.4 size=     256KiB time=00:00:01.95 bitrate=1071.1kbits/s speed=0.0445x elapsed=0:00:44.02    \nframe=   50 fps=1.1 q=40.6 size=     256KiB time=00:00:02.00 bitrate=1048.8kbits/s speed=0.0449x elapsed=0:00:44.57    \nframe=   50 fps=1.1 q=40.6 size=     256KiB time=00:00:02.00 bitrate=1048.8kbits/s speed=0.0444x elapsed=0:00:45.08    \nframe=   50 fps=1.1 q=40.6 size=     256KiB time=00:00:02.00 bitrate=1048.8kbits/s speed=0.0438x elapsed=0:00:45.61    \nframe=   50 fps=1.1 q=40.6 size=     256KiB time=00:00:02.00 bitrate=1048.8kbits/s speed=0.0433x elapsed=0:00:46.15    \nframe=   50 fps=1.1 q=40.6 size=     256KiB time=00:00:02.00 bitrate=1048.8kbits/s speed=0.0429x elapsed=0:00:46.66    \nframe=   50 fps=1.1 q=40.6 size=     256KiB time=00:00:02.00 bitrate=1048.8kbits/s speed=0.0424x elapsed=0:00:47.19    \nframe=   50 fps=1.0 q=40.6 size=     256KiB time=00:00:02.00 bitrate=1048.8kbits/s speed=0.0419x elapsed=0:00:47.74    \nframe=   51 fps=1.1 q=40.8 size=     256KiB time=00:00:02.04 bitrate=1027.3kbits/s speed=0.0423x elapsed=0:00:48.25    \nframe=   51 fps=1.0 q=40.8 size=     256KiB time=00:00:02.04 bitrate=1027.3kbits/s speed=0.0419x elapsed=0:00:48.77    \nframe=   53 fps=1.1 q=34.4 size=     256KiB time=00:00:02.12 bitrate= 987.1kbits/s speed=0.0431x elapsed=0:00:49.29    \nframe=   54 fps=1.1 q=38.4 size=     256KiB time=00:00:02.16 bitrate= 968.1kbits/s speed=0.0435x elapsed=0:00:49.80    \nframe=   55 fps=1.1 q=40.7 size=     256KiB time=00:00:02.20 bitrate= 949.8kbits/s speed=0.0439x elapsed=0:00:50.33    \nframe=   56 fps=1.1 q=40.4 size=     256KiB time=00:00:02.25 bitrate= 932.2kbits/s speed=0.0443x elapsed=0:00:50.84    \nframe=   57 fps=1.1 q=33.8 size=     256KiB time=00:00:02.29 bitrate= 915.3kbits/s speed=0.0446x elapsed=0:00:51.35    \nframe=   58 fps=1.1 q=38.5 size=     256KiB time=00:00:02.33 bitrate= 898.9kbits/s speed=0.045x elapsed=0:00:51.87    \nframe=   59 fps=1.1 q=41.3 size=     256KiB time=00:00:02.37 bitrate= 883.2kbits/s speed=0.0453x elapsed=0:00:52.38    \nframe=   61 fps=1.2 q=34.6 size=     256KiB time=00:00:02.45 bitrate= 853.2kbits/s speed=0.0465x elapsed=0:00:52.90    \nframe=   62 fps=1.2 q=38.5 size=     256KiB time=00:00:02.50 bitrate= 839.0kbits/s speed=0.0468x elapsed=0:00:53.41    \nframe=   62 fps=1.1 q=38.5 size=     256KiB time=00:00:02.50 bitrate= 839.0kbits/s speed=0.0464x elapsed=0:00:53.93    \nframe=   63 fps=1.2 q=41.6 size=     256KiB time=00:00:02.54 bitrate= 825.2kbits/s speed=0.0467x elapsed=0:00:54.44    \nframe=   65 fps=1.2 q=34.6 size=     256KiB time=00:00:02.62 bitrate= 799.0kbits/s speed=0.0478x elapsed=0:00:54.96    \nframe=   65 fps=1.2 q=34.6 size=     256KiB time=00:00:02.62 bitrate= 799.0kbits/s speed=0.0473x elapsed=0:00:55.48    \nframe=   67 fps=1.2 q=40.5 size=     256KiB time=00:00:02.70 bitrate= 774.5kbits/s speed=0.0484x elapsed=0:00:56.01    \nframe=   68 fps=1.2 q=40.7 size=     256KiB time=00:00:02.75 bitrate= 762.7kbits/s speed=0.0487x elapsed=0:00:56.52    \nframe=   69 fps=1.2 q=33.4 size=     256KiB time=00:00:02.79 bitrate= 751.3kbits/s speed=0.0489x elapsed=0:00:57.04    \nframe=   70 fps=1.2 q=38.7 size=     512KiB time=00:00:02.83 bitrate=1480.5kbits/s speed=0.0492x elapsed=0:00:57.56    \nframe=   71 fps=1.2 q=40.0 size=     512KiB time=00:00:02.87 bitrate=1459.0kbits/s speed=0.0495x elapsed=0:00:58.09    \nframe=   72 fps=1.2 q=40.4 size=     512KiB time=00:00:02.91 bitrate=1438.2kbits/s speed=0.0498x elapsed=0:00:58.60    \nframe=   72 fps=1.2 q=40.4 size=     512KiB time=00:00:02.91 bitrate=1438.2kbits/s speed=0.0493x elapsed=0:00:59.13    \nframe=   73 fps=1.2 q=40.7 size=     512KiB time=00:00:02.95 bitrate=1417.9kbits/s speed=0.0496x elapsed=0:00:59.65    \nframe=   75 fps=1.2 q=35.7 size=     512KiB time=00:00:03.04 bitrate=1379.1kbits/s speed=0.0505x elapsed=0:01:00.17    \nframe=   76 fps=1.3 q=41.2 size=     512KiB time=00:00:03.08 bitrate=1360.4kbits/s speed=0.0508x elapsed=0:01:00.69    \nframe=   77 fps=1.3 q=40.4 size=     512KiB time=00:00:03.12 bitrate=1342.3kbits/s speed=0.0511x elapsed=0:01:01.21    \nframe=   79 fps=1.3 q=34.3 size=     512KiB time=00:00:03.20 bitrate=1307.4kbits/s speed=0.052x elapsed=0:01:01.72    \nframe=   80 fps=1.3 q=38.8 size=     512KiB time=00:00:03.25 bitrate=1290.7kbits/s speed=0.0522x elapsed=0:01:02.24    \nframe=   81 fps=1.3 q=41.1 size=     512KiB time=00:00:03.29 bitrate=1274.3kbits/s speed=0.0524x elapsed=0:01:02.76    \nframe=   82 fps=1.3 q=40.5 size=     512KiB time=00:00:03.33 bitrate=1258.4kbits/s speed=0.0527x elapsed=0:01:03.28    \nframe=   84 fps=1.3 q=38.8 size=     512KiB time=00:00:03.41 bitrate=1227.7kbits/s speed=0.0535x elapsed=0:01:03.81    \nframe=   84 fps=1.3 q=38.8 size=     512KiB time=00:00:03.41 bitrate=1227.7kbits/s speed=0.0531x elapsed=0:01:04.32    \nframe=   86 fps=1.3 q=40.7 size=     512KiB time=00:00:03.50 bitrate=1198.5kbits/s speed=0.054x elapsed=0:01:04.83    \nframe=   87 fps=1.3 q=33.3 size=     512KiB time=00:00:03.54 bitrate=1184.4kbits/s speed=0.0542x elapsed=0:01:05.35    \nframe=   88 fps=1.3 q=37.1 size=     512KiB time=00:00:03.58 bitrate=1170.6kbits/s speed=0.0544x elapsed=0:01:05.87    \nframe=   89 fps=1.3 q=40.6 size=     512KiB time=00:00:03.62 bitrate=1157.1kbits/s speed=0.0546x elapsed=0:01:06.38    \nframe=   90 fps=1.3 q=41.0 size=     512KiB time=00:00:03.66 bitrate=1144.0kbits/s speed=0.0548x elapsed=0:01:06.90    \nframe=   92 fps=1.4 q=34.6 size=     512KiB time=00:00:03.75 bitrate=1118.6kbits/s speed=0.0556x elapsed=0:01:07.41    \nframe=   93 fps=1.4 q=38.5 size=     512KiB time=00:00:03.79 bitrate=1106.3kbits/s speed=0.0558x elapsed=0:01:07.93    \nframe=   94 fps=1.4 q=41.3 size=     512KiB time=00:00:03.83 bitrate=1094.3kbits/s speed=0.056x elapsed=0:01:08.44    \nframe=   96 fps=1.4 q=33.2 size=     512KiB time=00:00:03.91 bitrate=1071.0kbits/s speed=0.0568x elapsed=0:01:08.96    \nframe=   97 fps=1.4 q=38.4 size=     512KiB time=00:00:03.95 bitrate=1059.7kbits/s speed=0.057x elapsed=0:01:09.47    \nframe=   98 fps=1.4 q=41.3 size=     512KiB time=00:00:04.00 bitrate=1048.7kbits/s speed=0.0571x elapsed=0:01:09.99    \nframe=   99 fps=1.4 q=40.7 size=     512KiB time=00:00:04.04 bitrate=1037.9kbits/s speed=0.0573x elapsed=0:01:10.51    \nframe=  101 fps=1.4 q=39.3 size=     512KiB time=00:00:04.12 bitrate=1016.9kbits/s speed=0.0581x elapsed=0:01:11.02    \nframe=  102 fps=1.4 q=40.7 size=     768KiB time=00:00:04.16 bitrate=1510.0kbits/s speed=0.0582x elapsed=0:01:11.54    \nframe=  103 fps=1.4 q=40.5 size=     768KiB time=00:00:04.20 bitrate=1495.1kbits/s speed=0.0584x elapsed=0:01:12.05    \nframe=  104 fps=1.4 q=40.5 size=     768KiB time=00:00:04.25 bitrate=1480.4kbits/s speed=0.0586x elapsed=0:01:12.56    \nframe=  105 fps=1.4 q=33.2 size=     768KiB time=00:00:04.29 bitrate=1466.1kbits/s speed=0.0587x elapsed=0:01:13.09    \nframe=  107 fps=1.5 q=40.5 size=     768KiB time=00:00:04.37 bitrate=1438.1kbits/s speed=0.0594x elapsed=0:01:13.60    \nframe=  108 fps=1.5 q=40.6 size=     768KiB time=00:00:04.41 bitrate=1424.6kbits/s speed=0.0596x elapsed=0:01:14.12    \nframe=  109 fps=1.5 q=33.9 size=     768KiB time=00:00:04.45 bitrate=1411.2kbits/s speed=0.0597x elapsed=0:01:14.63    \nframe=  110 fps=1.5 q=38.0 size=     768KiB time=00:00:04.50 bitrate=1398.2kbits/s speed=0.0599x elapsed=0:01:15.14    \nframe=  111 fps=1.5 q=40.7 size=     768KiB time=00:00:04.54 bitrate=1385.4kbits/s speed=0.06x elapsed=0:01:15.66    \nframe=  112 fps=1.5 q=39.8 size=     768KiB time=00:00:04.58 bitrate=1372.8kbits/s speed=0.0602x elapsed=0:01:16.18    \nframe=  114 fps=1.5 q=38.5 size=     768KiB time=00:00:04.66 bitrate=1348.2kbits/s speed=0.0608x elapsed=0:01:16.69    \nframe=  115 fps=1.5 q=39.0 size=     768KiB time=00:00:04.70 bitrate=1336.3kbits/s speed=0.061x elapsed=0:01:17.22    \nframe=  116 fps=1.5 q=39.4 size=     768KiB time=00:00:04.75 bitrate=1324.6kbits/s speed=0.0611x elapsed=0:01:17.72    \nframe=  117 fps=1.5 q=39.7 size=     768KiB time=00:00:04.79 bitrate=1313.1kbits/s speed=0.0612x elapsed=0:01:18.24    \nframe=  119 fps=1.5 q=33.8 size=     768KiB time=00:00:04.87 bitrate=1290.6kbits/s speed=0.0619x elapsed=0:01:18.76    \nframe=  120 fps=1.5 q=39.7 size=     768KiB time=00:00:04.91 bitrate=1279.7kbits/s speed=0.062x elapsed=0:01:19.27    \nframe=  121 fps=1.5 q=39.4 size=     768KiB time=00:00:04.95 bitrate=1268.9kbits/s speed=0.0621x elapsed=0:01:19.79    \nframe=  122 fps=1.5 q=39.8 size=     768KiB time=00:00:05.00 bitrate=1258.4kbits/s speed=0.0623x elapsed=0:01:20.31    \nframe=  124 fps=1.5 q=37.6 size=     768KiB time=00:00:05.08 bitrate=1237.7kbits/s speed=0.0629x elapsed=0:01:20.82    \nframe=  126 fps=1.5 q=40.3 size=     768KiB time=00:00:05.16 bitrate=1217.8kbits/s speed=0.0635x elapsed=0:01:21.34    \nframe=  127 fps=1.6 q=33.3 size=     768KiB time=00:00:05.20 bitrate=1208.0kbits/s speed=0.0636x elapsed=0:01:21.85    \nframe=  129 fps=1.6 q=38.9 size=     768KiB time=00:00:05.29 bitrate=1189.0kbits/s speed=0.0642x elapsed=0:01:22.36    \nframe=  129 fps=1.6 q=38.9 size=     768KiB time=00:00:05.29 bitrate=1189.0kbits/s speed=0.0638x elapsed=0:01:22.89    \nframe=  130 fps=1.6 q=38.8 size=     768KiB time=00:00:05.33 bitrate=1179.7kbits/s speed=0.0639x elapsed=0:01:23.40    \nframe=  132 fps=1.6 q=32.5 size=     768KiB time=00:00:05.41 bitrate=1161.6kbits/s speed=0.0645x elapsed=0:01:23.91    \nframe=  134 fps=1.6 q=39.0 size=     768KiB time=00:00:05.50 bitrate=1144.0kbits/s speed=0.0651x elapsed=0:01:24.42    \nframe=  134 fps=1.6 q=39.0 size=     768KiB time=00:00:05.50 bitrate=1144.0kbits/s speed=0.0647x elapsed=0:01:24.94    \nframe=  135 fps=1.6 q=39.3 size=     768KiB time=00:00:05.54 bitrate=1135.4kbits/s speed=0.0648x elapsed=0:01:25.45    \nframe=  137 fps=1.6 q=33.1 size=     768KiB time=00:00:05.62 bitrate=1118.5kbits/s speed=0.0654x elapsed=0:01:25.98    \nframe=  138 fps=1.6 q=33.9 size=    1024KiB time=00:00:05.66 bitrate=1480.4kbits/s speed=0.0655x elapsed=0:01:26.52    \nframe=  138 fps=1.6 q=33.9 size=    1024KiB time=00:00:05.66 bitrate=1480.4kbits/s speed=0.0651x elapsed=0:01:27.04    \nframe=  139 fps=1.6 q=39.7 size=    1024KiB time=00:00:05.70 bitrate=1469.6kbits/s speed=0.0652x elapsed=0:01:27.56    \nframe=  139 fps=1.6 q=39.7 size=    1024KiB time=00:00:05.70 bitrate=1469.6kbits/s speed=0.0648x elapsed=0:01:28.07    \nframe=  139 fps=1.6 q=39.7 size=    1024KiB time=00:00:05.70 bitrate=1469.6kbits/s speed=0.0644x elapsed=0:01:28.59    \nframe=  139 fps=1.6 q=39.7 size=    1024KiB time=00:00:05.70 bitrate=1469.6kbits/s speed=0.064x elapsed=0:01:29.13    \nframe=  141 fps=1.6 q=38.8 size=    1024KiB time=00:00:05.79 bitrate=1448.5kbits/s speed=0.0646x elapsed=0:01:29.65    \nframe=  142 fps=1.6 q=33.3 size=    1024KiB time=00:00:05.83 bitrate=1438.1kbits/s speed=0.0647x elapsed=0:01:30.16    \nframe=  142 fps=1.6 q=33.3 size=    1024KiB time=00:00:05.83 bitrate=1438.1kbits/s speed=0.0643x elapsed=0:01:30.68    \nframe=  142 fps=1.6 q=33.3 size=    1024KiB time=00:00:05.83 bitrate=1438.1kbits/s speed=0.064x elapsed=0:01:31.20    \nframe=  143 fps=1.6 q=38.0 size=    1024KiB time=00:00:05.87 bitrate=1427.9kbits/s speed=0.064x elapsed=0:01:31.72    \nframe=  145 fps=1.6 q=38.9 size=    1024KiB time=00:00:05.95 bitrate=1407.9kbits/s speed=0.0646x elapsed=0:01:32.26    \nframe=  145 fps=1.6 q=38.9 size=    1024KiB time=00:00:05.95 bitrate=1407.9kbits/s speed=0.0642x elapsed=0:01:32.78    \nframe=  146 fps=1.6 q=38.3 size=    1024KiB time=00:00:06.00 bitrate=1398.2kbits/s speed=0.0643x elapsed=0:01:33.32    \nframe=  146 fps=1.6 q=38.3 size=    1024KiB time=00:00:06.00 bitrate=1398.2kbits/s speed=0.0639x elapsed=0:01:33.83    \nframe=  147 fps=1.6 q=33.0 size=    1024KiB time=00:00:06.04 bitrate=1388.5kbits/s speed=0.064x elapsed=0:01:34.35    \nframe=  148 fps=1.6 q=36.6 size=    1024KiB time=00:00:06.08 bitrate=1379.0kbits/s speed=0.0641x elapsed=0:01:34.87    \nframe=  149 fps=1.6 q=39.4 size=    1024KiB time=00:00:06.12 bitrate=1369.6kbits/s speed=0.0642x elapsed=0:01:35.40    \nframe=  150 fps=1.6 q=39.2 size=    1024KiB time=00:00:06.16 bitrate=1360.4kbits/s speed=0.0643x elapsed=0:01:35.92    \nframe=  150 fps=1.6 q=39.2 size=    1024KiB time=00:00:06.16 bitrate=1360.4kbits/s speed=0.0639x elapsed=0:01:36.44    \nframe=  151 fps=1.6 q=33.1 size=    1024KiB time=00:00:06.20 bitrate=1351.2kbits/s speed=0.064x elapsed=0:01:36.96    \nframe=  151 fps=1.5 q=33.1 size=    1024KiB time=00:00:06.20 bitrate=1351.2kbits/s speed=0.0637x elapsed=0:01:37.49    \nframe=  151 fps=1.5 q=33.1 size=    1024KiB time=00:00:06.20 bitrate=1351.2kbits/s speed=0.0633x elapsed=0:01:38.01    \nframe=  153 fps=1.6 q=39.7 size=    1024KiB time=00:00:06.29 bitrate=1333.3kbits/s speed=0.0638x elapsed=0:01:38.55    \nframe=  153 fps=1.5 q=39.7 size=    1024KiB time=00:00:06.29 bitrate=1333.3kbits/s speed=0.0635x elapsed=0:01:39.07    \nframe=  154 fps=1.5 q=39.5 size=    1024KiB time=00:00:06.33 bitrate=1324.6kbits/s speed=0.0636x elapsed=0:01:39.61    \nframe=  155 fps=1.5 q=39.1 size=    1024KiB time=00:00:06.37 bitrate=1315.9kbits/s speed=0.0636x elapsed=0:01:40.16    \nframe=  155 fps=1.5 q=39.1 size=    1024KiB time=00:00:06.37 bitrate=1315.9kbits/s speed=0.0633x elapsed=0:01:40.69    \nframe=  155 fps=1.5 q=39.1 size=    1024KiB time=00:00:06.37 bitrate=1315.9kbits/s speed=0.063x elapsed=0:01:41.20    \nframe=  155 fps=1.5 q=39.1 size=    1024KiB time=00:00:06.37 bitrate=1315.9kbits/s speed=0.0627x elapsed=0:01:41.73    \nframe=  155 fps=1.5 q=39.1 size=    1024KiB time=00:00:06.37 bitrate=1315.9kbits/s speed=0.0623x elapsed=0:01:42.24    \nframe=  155 fps=1.5 q=39.1 size=    1024KiB time=00:00:06.37 bitrate=1315.9kbits/s speed=0.062x elapsed=0:01:42.76    \nframe=  156 fps=1.5 q=33.0 size=    1024KiB time=00:00:06.41 bitrate=1307.4kbits/s speed=0.0621x elapsed=0:01:43.28    \nframe=  157 fps=1.5 q=36.8 size=    1024KiB time=00:00:06.45 bitrate=1298.9kbits/s speed=0.0622x elapsed=0:01:43.79    \nframe=  157 fps=1.5 q=36.8 size=    1024KiB time=00:00:06.45 bitrate=1298.9kbits/s speed=0.0619x elapsed=0:01:44.31    \nframe=  157 fps=1.5 q=36.8 size=    1024KiB time=00:00:06.45 bitrate=1298.9kbits/s speed=0.0616x elapsed=0:01:44.86    \nframe=  158 fps=1.5 q=39.4 size=    1024KiB time=00:00:06.50 bitrate=1290.6kbits/s speed=0.0617x elapsed=0:01:45.40    \nframe=  159 fps=1.5 q=38.5 size=    1024KiB time=00:00:06.54 bitrate=1282.4kbits/s speed=0.0617x elapsed=0:01:45.94    \nframe=  159 fps=1.5 q=38.5 size=    1024KiB time=00:00:06.54 bitrate=1282.4kbits/s speed=0.0614x elapsed=0:01:46.47    \nframe=  159 fps=1.5 q=38.5 size=    1024KiB time=00:00:06.54 bitrate=1282.4kbits/s speed=0.0611x elapsed=0:01:47.02    \nframe=  159 fps=1.5 q=38.5 size=    1024KiB time=00:00:06.54 bitrate=1282.4kbits/s speed=0.0608x elapsed=0:01:47.57    \nframe=  159 fps=1.5 q=38.5 size=    1024KiB time=00:00:06.54 bitrate=1282.4kbits/s speed=0.0605x elapsed=0:01:48.16    \nframe=  159 fps=1.5 q=38.5 size=    1024KiB time=00:00:06.54 bitrate=1282.4kbits/s speed=0.0602x elapsed=0:01:48.68    \nframe=  159 fps=1.5 q=38.5 size=    1024KiB time=00:00:06.54 bitrate=1282.4kbits/s speed=0.0599x elapsed=0:01:49.21    \nframe=  159 fps=1.4 q=38.5 size=    1024KiB time=00:00:06.54 bitrate=1282.4kbits/s speed=0.0596x elapsed=0:01:49.77    \nframe=  159 fps=1.4 q=38.5 size=    1024KiB time=00:00:06.54 bitrate=1282.4kbits/s speed=0.0593x elapsed=0:01:50.34    \nframe=  161 fps=1.5 q=37.0 size=    1024KiB time=00:00:06.62 bitrate=1266.3kbits/s speed=0.0597x elapsed=0:01:50.89    \nframe=  161 fps=1.4 q=37.0 size=    1024KiB time=00:00:06.62 bitrate=1266.3kbits/s speed=0.0594x elapsed=0:01:51.44    \nframe=  161 fps=1.4 q=37.0 size=    1024KiB time=00:00:06.62 bitrate=1266.3kbits/s speed=0.0591x elapsed=0:01:52.00    \nframe=  161 fps=1.4 q=37.0 size=    1024KiB time=00:00:06.62 bitrate=1266.3kbits/s speed=0.0589x elapsed=0:01:52.54    \nframe=  161 fps=1.4 q=37.0 size=    1024KiB time=00:00:06.62 bitrate=1266.3kbits/s speed=0.0586x elapsed=0:01:53.08    \nframe=  161 fps=1.4 q=37.0 size=    1024KiB time=00:00:06.62 bitrate=1266.3kbits/s speed=0.0583x elapsed=0:01:53.60    \nframe=  162 fps=1.4 q=39.1 size=    1024KiB time=00:00:06.66 bitrate=1258.3kbits/s speed=0.0584x elapsed=0:01:54.16    \nframe=  164 fps=1.4 q=33.0 size=    1024KiB time=00:00:06.75 bitrate=1242.8kbits/s speed=0.0589x elapsed=0:01:54.69    \nframe=  164 fps=1.4 q=33.0 size=    1024KiB time=00:00:06.75 bitrate=1242.8kbits/s speed=0.0586x elapsed=0:01:55.19    \nframe=  164 fps=1.4 q=33.0 size=    1024KiB time=00:00:06.75 bitrate=1242.8kbits/s speed=0.0583x elapsed=0:01:55.71    \nframe=  164 fps=1.4 q=33.0 size=    1024KiB time=00:00:06.75 bitrate=1242.8kbits/s speed=0.0581x elapsed=0:01:56.26    \nframe=  165 fps=1.4 q=36.8 size=    1024KiB time=00:00:06.79 bitrate=1235.2kbits/s speed=0.0582x elapsed=0:01:56.77    \nframe=  165 fps=1.4 q=36.8 size=    1024KiB time=00:00:06.79 bitrate=1235.2kbits/s speed=0.0579x elapsed=0:01:57.30    \nframe=  165 fps=1.4 q=36.8 size=    1024KiB time=00:00:06.79 bitrate=1235.2kbits/s speed=0.0576x elapsed=0:01:57.84    \nframe=  166 fps=1.4 q=39.2 size=    1024KiB time=00:00:06.83 bitrate=1227.7kbits/s speed=0.0577x elapsed=0:01:58.37    \nframe=  167 fps=1.4 q=39.4 size=    1024KiB time=00:00:06.87 bitrate=1220.2kbits/s speed=0.0578x elapsed=0:01:58.89    \nframe=  168 fps=1.4 q=32.8 size=    1024KiB time=00:00:06.91 bitrate=1212.9kbits/s speed=0.0579x elapsed=0:01:59.41    \nframe=  168 fps=1.4 q=32.8 size=    1024KiB time=00:00:06.91 bitrate=1212.9kbits/s speed=0.0577x elapsed=0:01:59.93    \nframe=  168 fps=1.4 q=32.8 size=    1024KiB time=00:00:06.91 bitrate=1212.9kbits/s speed=0.0574x elapsed=0:02:00.45    \nframe=  170 fps=1.4 q=38.2 size=    1024KiB time=00:00:07.00 bitrate=1198.4kbits/s speed=0.0579x elapsed=0:02:00.98    \nframe=  170 fps=1.4 q=38.2 size=    1024KiB time=00:00:07.00 bitrate=1198.4kbits/s speed=0.0576x elapsed=0:02:01.50    \nframe=  171 fps=1.4 q=38.4 size=    1024KiB time=00:00:07.04 bitrate=1191.3kbits/s speed=0.0577x elapsed=0:02:02.03    \nframe=  172 fps=1.4 q=38.2 size=    1024KiB time=00:00:07.08 bitrate=1184.3kbits/s speed=0.0578x elapsed=0:02:02.57    \nframe=  173 fps=1.4 q=33.0 size=    1280KiB time=00:00:07.12 bitrate=1471.7kbits/s speed=0.0579x elapsed=0:02:03.10    \nframe=  173 fps=1.4 q=33.0 size=    1280KiB time=00:00:07.12 bitrate=1471.7kbits/s speed=0.0576x elapsed=0:02:03.62    \nframe=  173 fps=1.4 q=33.0 size=    1280KiB time=00:00:07.12 bitrate=1471.7kbits/s speed=0.0574x elapsed=0:02:04.16    \nframe=  175 fps=1.4 q=38.5 size=    1280KiB time=00:00:07.20 bitrate=1454.7kbits/s speed=0.0578x elapsed=0:02:04.69    \nframe=  176 fps=1.4 q=38.1 size=    1280KiB time=00:00:07.25 bitrate=1446.4kbits/s speed=0.0579x elapsed=0:02:05.21    \nframe=  177 fps=1.4 q=38.8 size=    1280KiB time=00:00:07.29 bitrate=1438.1kbits/s speed=0.058x elapsed=0:02:05.74    \nframe=  178 fps=1.4 q=33.4 size=    1280KiB time=00:00:07.33 bitrate=1429.9kbits/s speed=0.0581x elapsed=0:02:06.25    \nframe=  178 fps=1.4 q=33.4 size=    1280KiB time=00:00:07.33 bitrate=1429.9kbits/s speed=0.0578x elapsed=0:02:06.79    \nframe=  179 fps=1.4 q=36.9 size=    1280KiB time=00:00:07.37 bitrate=1421.8kbits/s speed=0.0579x elapsed=0:02:07.34    \nframe=  180 fps=1.4 q=40.3 size=    1280KiB time=00:00:07.41 bitrate=1413.9kbits/s speed=0.058x elapsed=0:02:07.89    \nframe=  180 fps=1.4 q=40.3 size=    1280KiB time=00:00:07.41 bitrate=1413.9kbits/s speed=0.0578x elapsed=0:02:08.42    \nframe=  180 fps=1.4 q=40.3 size=    1280KiB time=00:00:07.41 bitrate=1413.9kbits/s speed=0.0575x elapsed=0:02:08.93    \nframe=  182 fps=1.4 q=33.1 size=    1280KiB time=00:00:07.50 bitrate=1398.1kbits/s speed=0.0579x elapsed=0:02:09.44    \nframe=  183 fps=1.4 q=36.3 size=    1280KiB time=00:00:07.54 bitrate=1390.4kbits/s speed=0.058x elapsed=0:02:09.99    \nframe=  184 fps=1.4 q=38.9 size=    1280KiB time=00:00:07.58 bitrate=1382.8kbits/s speed=0.0581x elapsed=0:02:10.51    \nframe=  184 fps=1.4 q=38.9 size=    1280KiB time=00:00:07.58 bitrate=1382.8kbits/s speed=0.0579x elapsed=0:02:11.02    \nframe=  185 fps=1.4 q=38.6 size=    1280KiB time=00:00:07.62 bitrate=1375.2kbits/s speed=0.058x elapsed=0:02:11.56    \nframe=  186 fps=1.4 q=38.8 size=    1280KiB time=00:00:07.66 bitrate=1367.8kbits/s speed=0.058x elapsed=0:02:12.10    \nframe=  187 fps=1.4 q=33.1 size=    1280KiB time=00:00:07.70 bitrate=1360.4kbits/s speed=0.0581x elapsed=0:02:12.62    \nframe=  188 fps=1.4 q=37.0 size=    1280KiB time=00:00:07.75 bitrate=1353.0kbits/s speed=0.0582x elapsed=0:02:13.18    \nframe=  188 fps=1.4 q=37.0 size=    1280KiB time=00:00:07.75 bitrate=1353.0kbits/s speed=0.058x elapsed=0:02:13.71    \nframe=  188 fps=1.4 q=37.0 size=    1280KiB time=00:00:07.75 bitrate=1353.0kbits/s speed=0.0577x elapsed=0:02:14.24    \nframe=  189 fps=1.4 q=40.4 size=    1280KiB time=00:00:07.79 bitrate=1345.8kbits/s speed=0.0578x elapsed=0:02:14.77    \nframe=  190 fps=1.4 q=33.3 size=    1280KiB time=00:00:07.83 bitrate=1338.7kbits/s speed=0.0579x elapsed=0:02:15.27    \nframe=  190 fps=1.4 q=33.3 size=    1280KiB time=00:00:07.83 bitrate=1338.7kbits/s speed=0.0577x elapsed=0:02:15.80    \nframe=  191 fps=1.4 q=37.7 size=    1280KiB time=00:00:07.87 bitrate=1331.6kbits/s speed=0.0578x elapsed=0:02:16.33    \nframe=  191 fps=1.4 q=37.7 size=    1280KiB time=00:00:07.87 bitrate=1331.6kbits/s speed=0.0576x elapsed=0:02:16.83    \nframe=  191 fps=1.4 q=37.7 size=    1280KiB time=00:00:07.87 bitrate=1331.6kbits/s speed=0.0573x elapsed=0:02:17.36    \nframe=  192 fps=1.4 q=39.7 size=    1280KiB time=00:00:07.91 bitrate=1324.6kbits/s speed=0.0574x elapsed=0:02:17.89    \nframe=  192 fps=1.4 q=39.7 size=    1280KiB time=00:00:07.91 bitrate=1324.6kbits/s speed=0.0572x elapsed=0:02:18.39    \nframe=  192 fps=1.4 q=39.7 size=    1280KiB time=00:00:07.91 bitrate=1324.6kbits/s speed=0.057x elapsed=0:02:18.92    \nframe=  193 fps=1.4 q=39.3 size=    1280KiB time=00:00:07.95 bitrate=1317.6kbits/s speed=0.0571x elapsed=0:02:19.45    \nframe=  194 fps=1.4 q=33.0 size=    1280KiB time=00:00:08.00 bitrate=1310.8kbits/s speed=0.0571x elapsed=0:02:19.99    \nframe=  194 fps=1.4 q=33.0 size=    1280KiB time=00:00:08.00 bitrate=1310.8kbits/s speed=0.0569x elapsed=0:02:20.50    \nframe=  194 fps=1.4 q=33.0 size=    1280KiB time=00:00:08.00 bitrate=1310.8kbits/s speed=0.0567x elapsed=0:02:21.03    \nframe=  194 fps=1.4 q=33.0 size=    1280KiB time=00:00:08.00 bitrate=1310.8kbits/s speed=0.0565x elapsed=0:02:21.56    \nframe=  195 fps=1.4 q=33.7 size=    1280KiB time=00:00:08.04 bitrate=1304.0kbits/s speed=0.0566x elapsed=0:02:22.10    \nframe=  196 fps=1.4 q=39.1 size=    1280KiB time=00:00:08.08 bitrate=1297.3kbits/s speed=0.0567x elapsed=0:02:22.62    \nframe=  196 fps=1.4 q=39.1 size=    1280KiB time=00:00:08.08 bitrate=1297.3kbits/s speed=0.0565x elapsed=0:02:23.16    \nframe=  196 fps=1.4 q=39.1 size=    1280KiB time=00:00:08.08 bitrate=1297.3kbits/s speed=0.0563x elapsed=0:02:23.70    \nframe=  197 fps=1.4 q=39.5 size=    1280KiB time=00:00:08.12 bitrate=1290.6kbits/s speed=0.0563x elapsed=0:02:24.22    \nframe=  197 fps=1.4 q=39.5 size=    1280KiB time=00:00:08.12 bitrate=1290.6kbits/s speed=0.0561x elapsed=0:02:24.73    \nframe=  199 fps=1.4 q=33.6 size=    1280KiB time=00:00:08.20 bitrate=1277.5kbits/s speed=0.0565x elapsed=0:02:25.24    \nframe=  199 fps=1.4 q=33.6 size=    1280KiB time=00:00:08.20 bitrate=1277.5kbits/s speed=0.0563x elapsed=0:02:25.78    \nframe=  199 fps=1.4 q=33.6 size=    1280KiB time=00:00:08.20 bitrate=1277.5kbits/s speed=0.0561x elapsed=0:02:26.31    \nframe=  201 fps=1.4 q=40.8 size=    1280KiB time=00:00:08.29 bitrate=1264.7kbits/s speed=0.0565x elapsed=0:02:26.83    \nframe=  201 fps=1.4 q=40.8 size=    1280KiB time=00:00:08.29 bitrate=1264.7kbits/s speed=0.0563x elapsed=0:02:27.35    \nframe=  202 fps=1.4 q=40.7 size=    1280KiB time=00:00:08.33 bitrate=1258.3kbits/s speed=0.0564x elapsed=0:02:27.87    \nframe=  202 fps=1.4 q=40.7 size=    1280KiB time=00:00:08.33 bitrate=1258.3kbits/s speed=0.0562x elapsed=0:02:28.40    \nframe=  203 fps=1.4 q=40.8 size=    1280KiB time=00:00:08.37 bitrate=1252.1kbits/s speed=0.0562x elapsed=0:02:28.93    \nframe=  203 fps=1.4 q=40.8 size=    1280KiB time=00:00:08.37 bitrate=1252.1kbits/s speed=0.056x elapsed=0:02:29.47    \nframe=  204 fps=1.4 q=33.5 size=    1280KiB time=00:00:08.41 bitrate=1245.9kbits/s speed=0.0561x elapsed=0:02:29.98    \nframe=  205 fps=1.4 q=38.2 size=    1536KiB time=00:00:08.45 bitrate=1487.7kbits/s speed=0.0562x elapsed=0:02:30.52    \nframe=  205 fps=1.4 q=38.2 size=    1536KiB time=00:00:08.45 bitrate=1487.7kbits/s speed=0.056x elapsed=0:02:31.04    \nframe=  206 fps=1.4 q=40.8 size=    1536KiB time=00:00:08.50 bitrate=1480.4kbits/s speed=0.0561x elapsed=0:02:31.56    \nframe=  207 fps=1.4 q=40.5 size=    1536KiB time=00:00:08.54 bitrate=1473.2kbits/s speed=0.0562x elapsed=0:02:32.09    \nframe=  207 fps=1.4 q=40.5 size=    1536KiB time=00:00:08.54 bitrate=1473.2kbits/s speed=0.056x elapsed=0:02:32.65    \nframe=  208 fps=1.4 q=33.1 size=    1536KiB time=00:00:08.58 bitrate=1466.0kbits/s speed=0.056x elapsed=0:02:33.16    \nframe=  208 fps=1.4 q=33.1 size=    1536KiB time=00:00:08.58 bitrate=1466.0kbits/s speed=0.0558x elapsed=0:02:33.68    \nframe=  209 fps=1.4 q=37.5 size=    1536KiB time=00:00:08.62 bitrate=1458.9kbits/s speed=0.0559x elapsed=0:02:34.20    \nframe=  209 fps=1.4 q=37.5 size=    1536KiB time=00:00:08.62 bitrate=1458.9kbits/s speed=0.0557x elapsed=0:02:34.73    \nframe=  210 fps=1.4 q=40.5 size=    1536KiB time=00:00:08.66 bitrate=1451.9kbits/s speed=0.0558x elapsed=0:02:35.28    \nframe=  212 fps=1.4 q=32.9 size=    1536KiB time=00:00:08.75 bitrate=1438.1kbits/s speed=0.0562x elapsed=0:02:35.81    \nframe=  212 fps=1.4 q=32.9 size=    1536KiB time=00:00:08.75 bitrate=1438.1kbits/s speed=0.056x elapsed=0:02:36.35    \nframe=  212 fps=1.4 q=32.9 size=    1536KiB time=00:00:08.75 bitrate=1438.1kbits/s speed=0.0558x elapsed=0:02:36.88    \nframe=  213 fps=1.4 q=37.6 size=    1536KiB time=00:00:08.79 bitrate=1431.3kbits/s speed=0.0558x elapsed=0:02:37.42    \nframe=  213 fps=1.3 q=37.6 size=    1536KiB time=00:00:08.79 bitrate=1431.3kbits/s speed=0.0557x elapsed=0:02:37.96    \nframe=  213 fps=1.3 q=37.6 size=    1536KiB time=00:00:08.79 bitrate=1431.3kbits/s speed=0.0555x elapsed=0:02:38.50    \nframe=  214 fps=1.3 q=39.8 size=    1536KiB time=00:00:08.83 bitrate=1424.5kbits/s speed=0.0555x elapsed=0:02:39.01    \nframe=  214 fps=1.3 q=39.8 size=    1536KiB time=00:00:08.83 bitrate=1424.5kbits/s speed=0.0554x elapsed=0:02:39.52    \nframe=  215 fps=1.3 q=39.7 size=    1536KiB time=00:00:08.87 bitrate=1417.8kbits/s speed=0.0555x elapsed=0:02:40.04    \nframe=  215 fps=1.3 q=39.7 size=    1536KiB time=00:00:08.87 bitrate=1417.8kbits/s speed=0.0553x elapsed=0:02:40.55    \nframe=  216 fps=1.3 q=32.5 size=    1536KiB time=00:00:08.91 bitrate=1411.2kbits/s speed=0.0554x elapsed=0:02:41.08    \nframe=  217 fps=1.3 q=36.3 size=    1536KiB time=00:00:08.95 bitrate=1404.6kbits/s speed=0.0554x elapsed=0:02:41.61    \nframe=  218 fps=1.3 q=39.0 size=    1536KiB time=00:00:09.00 bitrate=1398.1kbits/s speed=0.0555x elapsed=0:02:42.13    \nframe=  218 fps=1.3 q=39.0 size=    1536KiB time=00:00:09.00 bitrate=1398.1kbits/s speed=0.0553x elapsed=0:02:42.66    \nframe=  219 fps=1.3 q=39.0 size=    1536KiB time=00:00:09.04 bitrate=1391.7kbits/s speed=0.0554x elapsed=0:02:43.20    \nframe=  220 fps=1.3 q=38.9 size=    1536KiB time=00:00:09.08 bitrate=1385.3kbits/s speed=0.0555x elapsed=0:02:43.71    \nframe=  221 fps=1.3 q=32.6 size=    1536KiB time=00:00:09.12 bitrate=1379.0kbits/s speed=0.0556x elapsed=0:02:44.25    \nframe=  222 fps=1.3 q=33.3 size=    1536KiB time=00:00:09.16 bitrate=1372.7kbits/s speed=0.0556x elapsed=0:02:44.75    \nframe=  223 fps=1.3 q=39.6 size=    1536KiB time=00:00:09.20 bitrate=1366.5kbits/s speed=0.0557x elapsed=0:02:45.27    \nframe=  225 fps=1.4 q=39.1 size=    1536KiB time=00:00:09.29 bitrate=1354.3kbits/s speed=0.056x elapsed=0:02:45.79    \nframe=  226 fps=1.4 q=32.4 size=    1536KiB time=00:00:09.33 bitrate=1348.2kbits/s speed=0.0561x elapsed=0:02:46.31    \nframe=  228 fps=1.4 q=39.0 size=    1536KiB time=00:00:09.41 bitrate=1336.3kbits/s speed=0.0564x elapsed=0:02:46.82    \nframe=  228 fps=1.4 q=39.0 size=    1536KiB time=00:00:09.41 bitrate=1336.3kbits/s speed=0.0563x elapsed=0:02:47.33    \nframe=  230 fps=1.4 q=37.9 size=    1536KiB time=00:00:09.50 bitrate=1324.6kbits/s speed=0.0566x elapsed=0:02:47.86    \nframe=  230 fps=1.4 q=37.9 size=    1536KiB time=00:00:09.50 bitrate=1324.6kbits/s speed=0.0564x elapsed=0:02:48.38    \nframe=  232 fps=1.4 q=33.2 size=    1536KiB time=00:00:09.58 bitrate=1313.0kbits/s speed=0.0567x elapsed=0:02:48.90    \nframe=  234 fps=1.4 q=35.8 size=    1536KiB time=00:00:09.66 bitrate=1301.7kbits/s speed=0.0571x elapsed=0:02:49.42    \nframe=  236 fps=1.4 q=32.7 size=    1536KiB time=00:00:09.75 bitrate=1290.6kbits/s speed=0.0574x elapsed=0:02:49.93    \nframe=  239 fps=1.4 q=33.5 size=    1792KiB time=00:00:09.87 bitrate=1486.6kbits/s speed=0.0579x elapsed=0:02:50.45    \n[mp4 @ 0000013a1d0db780] Starting second pass: moving the moov atom to the beginning of the file\n[out#0/mp4 @ 0000013a1d0db680] video:1810KiB audio:0KiB subtitle:0KiB other streams:0KiB global headers:2KiB muxing overhead: 0.340609%\nframe=  240 fps=1.4 q=33.2 Lsize=    1816KiB time=00:00:09.91 bitrate=1500.5kbits/s speed=0.0581x elapsed=0:02:50.60    \nx265 [info]: frame I:      1, Avg QP:35.29  kb/s: 10267.20\nx265 [info]: frame P:     54, Avg QP:33.90  kb/s: 4586.07 \nx265 [info]: frame B:    185, Avg QP:39.12  kb/s: 528.75  \nx265 [info]: Weighted P-Frames: Y:0.0% UV:0.0%\n\nencoded 240 frames in 170.54s (1.41 fps), 1482.22 kb/s, Avg QP:37.93\n",
  "seconds": 170.75481748580933,
  "probe_out": {}
}